<svg width="21" height="47" viewBox="0 0 21 47" fill="none" xmlns="http://www.w3.org/2000/svg">
<path d="M4.97562 21.5232L4.21173 5.02208C4.21173 3.04009 9.37317 2.9575 10.4055 2.9575C11.4377 2.9575 16.5992 3.05557 16.5992 5.02208L15.8559 21.5387H18.5967L19.696 3.87108C19.696 1.29036 15.0507 0 10.4055 0C5.76016 0 1.11487 1.29036 1.11487 3.87108L2.21426 21.5232H4.97562Z" fill="#27AE60"/>
<path d="M0 46.4529H1.89941L5.53306 30.2925H1.37294L0 46.4529Z" fill="#27AE60"/>
<path d="M15.3346 30.2925L18.9683 46.4529H20.8677L19.4947 30.2925H15.3346Z" fill="#27AE60"/>
<path d="M10.4055 3.71623C7.1744 3.71623 5.00659 4.38206 5.00659 5.00659L5.76016 21.5232H15.0507L15.794 5.00659C15.794 4.78465 15.3966 4.42335 14.2765 4.13947C13.0078 3.84396 11.7081 3.70187 10.4055 3.71623Z" fill="#27AE60"/>
<path d="M20.3412 24.0575C20.3412 23.5907 20.1558 23.143 19.8257 22.8129C19.4956 22.4828 19.048 22.2974 18.5812 22.2974H2.22974C1.76295 22.2974 1.31527 22.4828 0.985197 22.8129C0.655124 23.143 0.469691 23.5907 0.469691 24.0575V26.4575H20.3412V24.0575Z" fill="#27AE60"/>
<path d="M20.3412 27.2317H0.469691V29.5183H20.3412V27.2317Z" fill="#27AE60"/>
</svg>
